<?xml version="1.0" standalone="no"?>
<!DOCTYPE svg PUBLIC "-//W3C//DTD SVG 20010904//EN"
 "http://www.w3.org/TR/2001/REC-SVG-20010904/DTD/svg10.dtd">
<svg version="1.0" xmlns="http://www.w3.org/2000/svg"
 width="512.000000pt" height="512.000000pt" viewBox="0 0 512.000000 512.000000"
 preserveAspectRatio="xMidYMid meet">
<metadata>
Created by potrace 1.16, written by Peter Selinger 2001-2019
</metadata>
<g transform="translate(0.000000,512.000000) scale(0.100000,-0.100000)"
fill="#000000" stroke="none">
<path d="M2343 4080 c-18 -6 -50 -31 -73 -58 -34 -41 -52 -53 -120 -76 -43
-15 -102 -42 -129 -59 -285 -180 -355 -232 -479 -355 -246 -245 -371 -505
-407 -848 -8 -76 6 -95 68 -93 23 1 34 3 25 6 -21 5 -23 14 -6 31 9 9 8 12 -5
12 -13 0 -17 9 -17 33 0 67 58 227 97 266 14 13 13 16 -6 23 -11 4 -21 10 -21
13 0 13 80 188 113 247 126 225 329 419 562 536 74 37 258 102 289 102 7 0 24
10 37 21 123 108 153 119 327 119 153 0 190 -9 243 -60 29 -27 55 -42 90 -49
27 -6 95 -29 151 -51 170 -68 316 -160 430 -273 93 -91 194 -227 169 -227 -5
0 -11 -9 -13 -20 -2 -15 -16 -4 -63 52 -68 81 -239 228 -266 228 -9 0 -50 19
-91 43 -148 88 -303 142 -488 172 -117 18 -140 19 -140 2 0 -32 47 -52 232
-99 217 -55 272 -79 577 -250 30 -16 99 -73 154 -126 58 -57 102 -92 104 -84
3 6 11 12 19 12 12 0 12 5 -1 33 -15 30 -14 31 1 10 9 -13 27 -23 39 -23 27 0
125 -101 155 -161 11 -21 23 -39 25 -39 10 0 -54 116 -112 205 -224 340 -503
557 -847 659 -97 28 -126 42 -155 70 -20 19 -49 40 -66 47 -39 15 -359 22
-402 9z"/>
<path d="M1594 3997 c-43 -30 -113 -75 -156 -100 -105 -65 -138 -104 -138
-165 1 -26 7 -58 15 -72 14 -25 14 -25 15 13 0 35 9 48 90 132 50 51 90 100
90 108 0 8 6 17 13 20 10 4 144 101 156 113 15 15 -16 -3 -85 -49z"/>
<path d="M3523 3998 c11 -7 71 -47 135 -89 73 -47 127 -91 145 -115 32 -45 36
-37 6 12 -23 37 -61 66 -184 139 -85 50 -137 77 -102 53z"/>
<path d="M2331 3813 c-98 -15 -262 -68 -353 -114 -189 -95 -406 -286 -521
-460 -105 -159 -176 -362 -191 -549 -7 -81 4 -49 33 99 16 80 33 130 79 225
71 145 132 233 243 350 188 199 369 309 642 390 82 24 151 47 154 49 18 18
-13 22 -86 10z"/>
<path d="M2690 3654 c19 -9 102 -38 185 -66 82 -27 204 -77 271 -109 117 -57
163 -67 150 -32 -3 8 -6 16 -6 18 0 2 -8 1 -19 -2 -11 -3 -51 14 -97 41 -105
60 -234 108 -375 140 -132 30 -159 32 -109 10z"/>
<path d="M2461 3604 c-1 -42 -17 -53 -93 -65 -314 -51 -610 -281 -768 -596
-66 -134 -110 -302 -110 -424 l0 -49 -180 0 c-99 0 -180 -2 -180 -4 0 -20 35
-185 51 -238 42 -144 153 -351 223 -417 19 -18 15 -5 -22 66 -26 48 -54 102
-64 118 -90 156 -123 311 -76 355 12 11 27 20 34 20 7 0 18 8 23 18 9 14 10
13 11 -11 0 -34 19 -32 37 4 8 15 13 18 13 8 0 -14 7 -15 72 -2 40 7 82 20 95
28 12 9 26 15 30 14 15 -1 22 38 22 127 1 97 19 176 50 215 10 13 25 49 34 79
21 72 86 205 138 283 45 65 170 196 229 237 19 13 -4 -13 -52 -59 -137 -130
-222 -255 -278 -410 -42 -114 -37 -121 13 -21 61 122 118 202 213 296 139 138
231 193 430 258 121 40 136 60 115 161 -8 37 -9 38 -10 9z m-914 -1096 c-2
-18 -4 -6 -4 27 0 33 2 48 4 33 2 -15 2 -42 0 -60z"/>
<path d="M3932 3565 c4 -52 16 -95 46 -165 70 -165 121 -448 129 -720 6 -207
1 -229 -50 -216 l-27 6 -2 133 -2 132 -4 -125 c-2 -75 1 -139 8 -160 23 -71
-35 -334 -128 -580 -67 -178 -75 -247 -43 -387 26 -114 26 -119 1 -186 -42
-112 -150 -192 -275 -204 -75 -7 -82 2 -32 42 17 15 28 25 22 23 -5 -3 -32
-15 -60 -27 -77 -36 -282 -111 -302 -111 -15 0 -16 -2 -3 -10 39 -25 220 6
298 51 33 19 33 19 73 -2 111 -56 258 5 325 134 19 36 21 86 10 232 l-8 100
70 140 c115 230 154 380 144 556 -3 63 0 101 12 144 14 47 17 97 15 280 -1
122 -6 249 -10 281 -5 33 -11 73 -13 90 -3 18 -12 49 -21 70 -8 21 -13 44 -10
51 2 8 1 12 -4 9 -5 -3 -12 1 -15 10 -3 8 -2 12 4 9 6 -3 7 1 4 9 -3 9 -9 14
-13 12 -3 -2 -7 8 -8 24 -1 15 -24 83 -52 151 -27 68 -55 156 -61 194 -15 92
-24 97 -18 10z m169 -1403 c-18 -118 -60 -242 -127 -381 -36 -73 -67 -131 -70
-128 -3 3 17 52 45 109 62 128 114 282 138 408 20 105 31 99 14 -8z"/>
<path d="M1729 3593 c-13 -16 -12 -17 4 -4 9 7 17 15 17 17 0 8 -8 3 -21 -13z"/>
<path d="M3837 3440 c58 -90 88 -147 134 -260 53 -125 65 -135 23 -18 -37 103
-108 239 -150 284 l-35 39 28 -45z"/>
<path d="M2585 3273 c-83 -7 -173 -25 -246 -49 -78 -25 -204 -100 -204 -121 0
-6 -4 -15 -9 -20 -6 -5 -6 -2 -1 7 5 9 0 8 -14 -4 -12 -11 -19 -26 -16 -33 2
-8 0 -11 -5 -8 -26 16 -32 -58 -31 -367 1 -174 6 -329 10 -345 15 -53 40 -90
86 -131 57 -50 120 -70 176 -53 71 21 70 10 67 457 l-3 399 -39 6 c-56 9 -105
-8 -143 -49 -18 -20 -33 -31 -33 -24 0 19 61 82 86 88 13 3 21 11 18 16 -4 6
2 7 16 3 14 -4 20 -3 16 3 -7 11 95 59 168 79 80 21 225 28 311 14 144 -24
312 -109 449 -229 64 -57 86 -62 116 -32 19 19 50 18 50 -3 0 -6 2 -8 5 -5 3
3 0 18 -7 34 -9 21 -19 28 -32 26 -11 -3 -16 0 -12 7 11 17 2 13 -24 -9 -13
-11 -31 -20 -42 -20 -10 0 -56 35 -102 78 -150 138 -328 225 -499 241 -45 5
-72 9 -59 10 12 0 22 7 22 15 0 8 10 17 23 19 26 5 -40 5 -98 0z m-202 -585
c12 -451 11 -472 -17 -505 -21 -24 -32 -28 -73 -27 -53 1 -92 18 -139 61 -16
15 -22 21 -12 13 18 -13 18 -13 7 15 -27 67 -15 543 15 606 24 51 106 97 177
98 l36 1 6 -262z"/>
<path d="M3731 3115 c0 -5 6 -21 14 -35 8 -14 14 -20 14 -15 0 6 -6 21 -14 35
-8 14 -14 21 -14 15z"/>
<path d="M3550 3090 c6 -11 13 -20 16 -20 2 0 0 9 -6 20 -6 11 -13 20 -16 20
-2 0 0 -9 6 -20z"/>
<path d="M3930 3075 c0 -5 5 -17 10 -25 5 -8 10 -10 10 -5 0 6 -5 17 -10 25
-5 8 -10 11 -10 5z"/>
<path d="M3571 3055 c0 -5 6 -21 14 -35 8 -14 14 -20 14 -15 0 6 -6 21 -14 35
-8 14 -14 21 -14 15z"/>
<path d="M3305 3030 c10 -11 20 -20 23 -20 3 0 -3 9 -13 20 -10 11 -20 20 -23
20 -3 0 3 -9 13 -20z"/>
<path d="M3765 3037 c22 -80 35 -144 45 -217 17 -121 30 -173 24 -90 -9 111
-35 243 -55 285 -11 22 -17 32 -14 22z"/>
<path d="M2553 3009 c-9 -9 -13 -54 -13 -150 0 -145 2 -151 49 -140 25 7 26
21 22 220 -1 40 -41 87 -58 70z"/>
<path d="M3342 2980 c7 -11 17 -20 22 -20 5 0 1 9 -9 20 -10 11 -20 20 -22 20
-2 0 2 -9 9 -20z"/>
<path d="M3600 2985 c0 -5 5 -17 10 -25 5 -8 10 -10 10 -5 0 6 -5 17 -10 25
-5 8 -10 11 -10 5z"/>
<path d="M3981 2924 c0 -11 3 -14 6 -6 3 7 2 16 -1 19 -3 4 -6 -2 -5 -13z"/>
<path d="M3991 2884 c0 -11 3 -14 6 -6 3 7 2 16 -1 19 -3 4 -6 -2 -5 -13z"/>
<path d="M4002 2840 c0 -14 2 -19 5 -12 2 6 2 18 0 25 -3 6 -5 1 -5 -13z"/>
<path d="M3544 2833 c34 -112 41 -165 40 -348 0 -160 -4 -201 -21 -262 l-20
-72 23 -5 c32 -8 30 -24 -15 -114 -103 -205 -303 -396 -515 -492 -173 -79
-475 -122 -636 -90 -25 4 -46 7 -48 5 -10 -9 36 -59 71 -76 74 -38 285 -42
462 -10 76 14 267 76 302 97 110 68 148 97 226 173 49 47 112 114 140 148 37
47 53 60 63 52 8 -7 14 -6 20 2 4 7 3 9 -4 5 -21 -12 -21 12 -2 67 13 38 20
83 20 134 0 77 9 155 31 265 8 39 20 65 39 83 l27 26 29 -23 c20 -15 24 -17
15 -5 -23 28 -52 40 -115 46 l-59 6 31 33 c30 32 33 33 104 30 66 -3 74 -5 85
-28 9 -17 13 -20 13 -8 0 9 -14 28 -31 42 -27 23 -40 26 -104 26 l-73 0 0 33
c-1 34 -37 152 -72 230 -20 46 -37 65 -26 30z"/>
<path d="M4012 2775 c0 -16 2 -22 5 -12 2 9 2 23 0 30 -3 6 -5 -1 -5 -18z"/>
<path d="M2551 2466 c-6 -7 -15 -73 -19 -147 -9 -153 -20 -179 -107 -246 -44
-35 -54 -38 -122 -42 l-75 -3 97 -48 c91 -45 98 -47 114 -32 10 9 39 35 66 56
62 51 83 101 95 222 15 160 19 163 295 163 240 1 320 -14 477 -88 l77 -37 10
43 c19 73 19 73 -55 73 -54 0 -71 4 -98 25 -65 50 -254 75 -567 75 -137 0
-179 -3 -188 -14z"/>
<path d="M3952 2424 c-1 -34 -9 -99 -18 -144 -8 -45 -13 -84 -11 -87 10 -9 38
185 35 237 l-4 55 -2 -61z"/>
<path d="M3827 2312 c-9 -48 -26 -114 -37 -147 -11 -32 -18 -60 -16 -63 7 -7
53 148 65 222 7 37 10 70 8 73 -2 2 -12 -36 -20 -85z"/>
<path d="M3342 2241 c-16 -53 -98 -176 -158 -235 -103 -104 -250 -180 -404
-212 -112 -22 -303 -15 -410 16 -153 44 -305 145 -391 260 -63 85 -66 80 -5
-10 83 -124 207 -233 331 -291 142 -66 336 -93 499 -70 104 15 265 71 332 116
30 19 59 33 64 30 4 -3 34 23 64 57 60 66 146 223 146 264 0 31 -22 85 -42
101 -13 11 -17 7 -26 -26z"/>
<path d="M1910 2160 c6 -11 13 -20 16 -20 2 0 0 9 -6 20 -6 11 -13 20 -16 20
-2 0 0 -9 6 -20z"/>
<path d="M3911 2168 c-2 -37 -64 -204 -111 -299 -73 -149 -169 -286 -250 -362
-148 -137 -346 -252 -540 -315 -64 -20 -146 -55 -185 -79 -47 -28 -111 -54
-193 -78 -68 -19 -165 -55 -215 -78 l-92 -42 -120 1 c-199 3 -339 49 -560 187
-50 31 -119 79 -155 108 -58 46 -61 47 -29 13 20 -22 39 -46 42 -54 4 -11 6
-11 6 -2 1 15 114 -60 171 -114 59 -56 215 -140 318 -173 168 -54 333 -59 472
-16 41 14 130 40 198 59 67 20 161 52 210 72 48 20 150 59 227 86 77 27 160
59 185 71 82 39 204 119 304 199 76 61 104 78 125 76 23 -3 27 -9 32 -48 4
-32 6 -37 7 -15 2 28 -10 121 -24 189 -6 26 -8 28 -44 22 -21 -3 -47 -9 -57
-13 -16 -5 -15 -3 3 18 40 44 133 195 179 290 49 101 110 281 102 302 -4 7 -6
6 -6 -5z"/>
<path d="M3756 2075 c-9 -26 -7 -32 5 -12 6 10 9 21 6 23 -2 3 -7 -2 -11 -11z"/>
<path d="M3690 1940 c-6 -11 -8 -20 -6 -20 3 0 10 9 16 20 6 11 8 20 6 20 -3
0 -10 -9 -16 -20z"/>
<path d="M3655 1884 c-9 -15 -12 -23 -6 -20 11 7 35 46 28 46 -3 0 -12 -12
-22 -26z"/>
<path d="M1879 1845 c115 -133 180 -188 285 -244 70 -37 116 -41 116 -10 0 11
-4 17 -10 14 -14 -9 -171 70 -243 123 -34 24 -91 72 -127 106 -61 58 -62 59
-21 11z"/>
<path d="M1421 1845 c96 -171 300 -343 544 -460 130 -62 149 -69 139 -53 -5 8
-1 9 12 4 38 -15 146 -37 158 -32 6 2 3 5 -6 5 -40 2 -219 66 -308 110 -119
59 -213 121 -312 205 -42 36 -81 66 -86 66 -5 0 -38 37 -73 82 -87 111 -94
119 -68 73z"/>
<path d="M1287 1753 c75 -118 112 -165 194 -251 39 -40 68 -76 65 -81 -3 -4 9
-21 27 -37 l32 -29 -30 35 c-19 22 -10 17 23 -15 53 -50 71 -74 30 -39 -21 17
-21 16 1 -9 24 -27 38 -36 26 -17 -3 6 -2 10 4 10 10 0 26 -19 26 -32 0 -3 4
-10 9 -15 5 -5 6 -3 2 5 -4 6 -3 12 2 12 11 0 39 -31 34 -37 -2 -3 0 -8 4 -11
4 -4 4 -1 -1 7 -5 9 -3 12 6 9 8 -3 14 -10 14 -16 0 -5 4 -14 9 -19 5 -5 6 -2
1 6 -4 7 -4 12 1 10 5 -3 61 -30 124 -61 164 -81 331 -125 434 -116 43 3 89
49 70 68 -6 6 -63 20 -128 31 -203 34 -350 90 -526 199 -179 111 -349 266
-456 416 -25 35 -48 64 -50 64 -2 0 22 -39 53 -87z"/>
<path d="M1120 1775 c0 -5 5 -17 10 -25 5 -8 10 -10 10 -5 0 6 -5 17 -10 25
-5 8 -10 11 -10 5z"/>
<path d="M3559 1728 c-30 -40 -31 -41 -5 -18 26 24 52 60 42 60 -2 0 -19 -19
-37 -42z"/>
<path d="M1161 1644 c0 -11 3 -14 6 -6 3 7 2 16 -1 19 -3 4 -6 -2 -5 -13z"/>
<path d="M3451 1620 c-19 -16 -39 -26 -45 -23 -6 3 -8 2 -3 -2 4 -5 -3 -20
-15 -34 -13 -14 0 -6 28 17 47 38 82 73 73 72 -2 -1 -19 -14 -38 -30z"/>
<path d="M1256 1555 c7 -71 31 -150 50 -165 13 -12 13 -7 -2 30 -10 24 -26 76
-36 114 -16 65 -17 67 -12 21z"/>
<path d="M2758 1593 c7 -3 16 -2 19 1 4 3 -2 6 -13 5 -11 0 -14 -3 -6 -6z"/>
<path d="M2708 1583 c7 -3 16 -2 19 1 4 3 -2 6 -13 5 -11 0 -14 -3 -6 -6z"/>
<path d="M2518 1573 c28 -2 76 -2 105 0 28 2 5 3 -53 3 -58 0 -81 -1 -52 -3z"/>
<path d="M3339 1523 c-13 -16 -12 -17 4 -4 16 13 21 21 13 21 -2 0 -10 -8 -17
-17z"/>
<path d="M3285 1484 l-30 -26 33 22 c17 12 32 23 32 26 0 7 -4 5 -35 -22z"/>
<path d="M3204 1434 c-18 -14 -18 -15 4 -4 12 6 22 13 22 15 0 8 -5 6 -26 -11z"/>
<path d="M3110 1385 c-36 -19 -61 -34 -57 -35 10 0 127 59 127 65 0 7 2 8 -70
-30z"/>
<path d="M1340 1345 c13 -14 26 -25 28 -25 3 0 -5 11 -18 25 -13 14 -26 25
-28 25 -3 0 5 -11 18 -25z"/>
<path d="M1230 1306 c0 -2 8 -10 18 -17 15 -13 16 -12 3 4 -13 16 -21 21 -21
13z"/>
<path d="M2310 1290 c14 -4 36 -8 50 -8 22 0 22 1 -5 8 -16 4 -39 8 -50 8 -16
0 -15 -2 5 -8z"/>
<path d="M2888 1293 c7 -3 16 -2 19 1 4 3 -2 6 -13 5 -11 0 -14 -3 -6 -6z"/>
<path d="M2413 1273 c9 -2 23 -2 30 0 6 3 -1 5 -18 5 -16 0 -22 -2 -12 -5z"/>
<path d="M2808 1273 c7 -3 16 -2 19 1 4 3 -2 6 -13 5 -11 0 -14 -3 -6 -6z"/>
<path d="M2758 1263 c7 -3 16 -2 19 1 4 3 -2 6 -13 5 -11 0 -14 -3 -6 -6z"/>
<path d="M1325 1201 c73 -77 131 -121 159 -120 19 0 19 1 -3 10 -28 11 -93 61
-166 128 -45 41 -44 40 10 -18z"/>
<path d="M2678 1253 c6 -2 18 -2 25 0 6 3 1 5 -13 5 -14 0 -19 -2 -12 -5z"/>
<path d="M2543 1243 c9 -2 25 -2 35 0 9 3 1 5 -18 5 -19 0 -27 -2 -17 -5z"/>
<path d="M1780 1216 c0 -3 9 -10 20 -16 11 -6 20 -8 20 -6 0 3 -9 10 -20 16
-11 6 -20 8 -20 6z"/>
<path d="M1850 1175 c0 -7 101 -57 106 -53 2 2 -21 16 -51 31 -30 15 -55 25
-55 22z"/>
<path d="M1492 1120 c0 -14 2 -19 5 -12 2 6 2 18 0 25 -3 6 -5 1 -5 -13z"/>
<path d="M1980 1110 c8 -5 20 -10 25 -10 6 0 3 5 -5 10 -8 5 -19 10 -25 10 -5
0 -3 -5 5 -10z"/>
<path d="M2080 1075 c19 -7 44 -14 55 -14 11 0 0 7 -25 15 -57 17 -77 17 -30
-1z"/>
<path d="M2195 1048 c22 -6 42 -15 45 -19 3 -5 19 -5 35 0 38 11 21 18 -60 24
-57 5 -58 5 -20 -5z"/>
</g>
</svg>